<svg width="50" height="50" viewBox="0 0 50 50" fill="none" xmlns="http://www.w3.org/2000/svg">
<rect width="50" height="50" rx="5.49451" fill="url(#paint0_linear_727_1045)"/>
<circle cx="21.1538" cy="18.4065" r="5.76923" stroke="white" stroke-width="2.1978"/>
<path fill-rule="evenodd" clip-rule="evenodd" d="M30.7655 39.0109C30.7681 38.9196 30.7694 38.828 30.7694 38.736C30.7694 33.4256 26.4644 29.1207 21.154 29.1207C15.8436 29.1207 11.5386 33.4256 11.5386 38.736C11.5386 38.828 11.5399 38.9196 11.5425 39.0109H9.34395C9.34187 38.9195 9.34082 38.8279 9.34082 38.736C9.34082 32.2118 14.6298 26.9229 21.154 26.9229C27.6782 26.9229 32.9672 32.2118 32.9672 38.736C32.9672 38.8279 32.9661 38.9195 32.9641 39.0109H30.7655Z" fill="white"/>
<circle cx="32.9179" cy="23.7638" r="3.98352" stroke="white" stroke-width="2.1978"/>
<path fill-rule="evenodd" clip-rule="evenodd" d="M29.8895 30.6045C30.432 31.1724 30.9144 31.7933 31.3271 32.4583C31.8362 32.3312 32.3688 32.2637 32.9173 32.2637C36.5314 32.2637 39.4612 35.1935 39.4612 38.8077C39.4612 38.8757 39.4602 38.9435 39.4581 39.0111H41.6567C41.6582 38.9434 41.659 38.8757 41.659 38.8077C41.659 33.9797 37.7452 30.0659 32.9173 30.0659C31.8529 30.0659 30.8329 30.2562 29.8895 30.6045Z" fill="white"/>
<defs>
<linearGradient id="paint0_linear_727_1045" x1="3.47222" y1="47.2222" x2="50" y2="9.72222" gradientUnits="userSpaceOnUse">
<stop stop-color="#5429FF"/>
<stop offset="1" stop-color="#896BFF"/>
</linearGradient>
</defs>
</svg>
