<svg width="24" height="26" viewBox="0 0 24 26" fill="none" xmlns="http://www.w3.org/2000/svg">
<path d="M1 10.6C1 6.0748 1 3.8116 2.43244 2.4064C3.86489 1.0012 6.16878 1 10.7778 1H13.2222C17.8312 1 20.1363 1 21.5676 2.4064C22.9988 3.8128 23 6.0748 23 10.6V15.4C23 19.9252 23 22.1884 21.5676 23.5936C20.1351 24.9988 17.8312 25 13.2222 25H10.7778C6.16878 25 3.86367 25 2.43244 23.5936C1.00122 22.1872 1 19.9252 1 15.4V10.6Z" stroke="#969696" stroke-width="1.375"/>
<path d="M7.11035 10.5999H16.8881M7.11035 15.3999H13.2215" stroke="#969696" stroke-width="1.375" stroke-linecap="round"/>
</svg>
