<svg width="24" height="30" viewBox="0 0 24 30" fill="none" xmlns="http://www.w3.org/2000/svg">
<path d="M1.00137 27.8319C1.00137 28.4759 1.52934 28.9985 2.17987 28.9985H18.9177C20.7451 28.9985 21.4287 28.4308 21.4287 26.5096V24.2619M1.00137 27.8319C1.00137 26.9036 1.37386 26.0134 2.03689 25.357C2.69993 24.7006 3.59919 24.3319 4.53687 24.3319H20.489C20.8441 24.3319 21.1574 24.3085 21.4287 24.2619M1.00137 27.8319V5.97631C1.00137 4.2092 0.888235 2.26009 2.71726 1.33765C3.38979 0.998535 4.26974 0.998535 6.02963 0.998535H20.4859C22.428 0.998535 23 1.67831 23 3.48742V21.843C23 23.3908 22.5569 24.0596 21.4287 24.2619" stroke="#969696" stroke-width="1.04762" stroke-linecap="round" stroke-linejoin="round"/>
</svg>
