<svg width="22" height="20" viewBox="0 0 22 20" fill="none" xmlns="http://www.w3.org/2000/svg">
<path d="M8.74302 -0.00146484C6.45337 -0.00146484 4.57058 1.75934 4.57058 3.96177C4.57058 6.1642 6.45337 7.92501 8.74418 7.92501C10.6724 7.92501 12.3116 6.67602 12.7814 4.96617C12.9883 5.65139 13.4405 6.24223 14.0564 6.63207C14.6723 7.02191 15.4115 7.18509 16.1404 7.09216C16.8693 6.99923 17.54 6.6563 18.0315 6.12527C18.523 5.59423 18.8029 4.91005 18.8207 4.19618C18.8385 3.48232 18.5931 2.78578 18.1286 2.23225C17.6642 1.67872 17.0113 1.30466 16.2879 1.17755C15.5645 1.05045 14.8181 1.17867 14.1834 1.53909C13.5488 1.89951 13.0676 2.46839 12.8268 3.14308C12.427 1.33698 10.74 -0.00146484 8.74302 -0.00146484ZM5.73639 3.96177C5.73639 2.41158 7.06891 1.13089 8.74418 1.13089C10.4183 1.13089 11.7496 2.41158 11.7496 3.96177C11.7496 5.51196 10.4183 6.79265 8.74302 6.79265C7.06891 6.79265 5.73639 5.51196 5.73639 3.96177ZM13.8224 4.1237C13.8224 3.63027 14.0243 3.15706 14.3835 2.80816C14.7427 2.45925 15.2299 2.26324 15.7379 2.26324C16.2459 2.26324 16.7331 2.45925 17.0923 2.80816C17.4515 3.15706 17.6533 3.63027 17.6533 4.1237C17.6533 4.61712 17.4515 5.09033 17.0923 5.43924C16.7331 5.78814 16.2459 5.98415 15.7379 5.98415C15.2299 5.98415 14.7427 5.78814 14.3835 5.43924C14.0243 5.09033 13.8224 4.61712 13.8224 4.1237ZM6.58627 9.52955C6.15842 9.26118 5.56735 9.06981 4.96113 9.23174C4.7746 9.28232 4.58885 9.33592 4.40387 9.39253L3.25555 9.75036C1.90904 10.1693 0.872636 11.2043 0.521727 12.511L0.513567 12.5416L0.027424 15.8673C-0.149779 17.0812 0.539214 18.3087 1.87873 18.611C3.25205 18.9202 5.47875 19.2485 8.74302 19.2485C12.0073 19.2485 14.234 18.9202 15.6073 18.611C16.948 18.3087 17.6358 17.0812 17.4586 15.8673L16.9725 12.5416L16.9643 12.511C16.6146 11.2043 15.577 10.1682 14.2305 9.75036L13.0833 9.39253C12.8984 9.33518 12.7122 9.28157 12.5249 9.23174C11.9187 9.06981 11.3276 9.26118 10.9009 9.52955C10.4416 9.81717 9.68266 10.1739 8.74418 10.1739C7.80571 10.1739 7.04443 9.8183 6.58627 9.52955ZM5.27007 10.3222C5.45077 10.2735 5.69792 10.3188 5.95323 10.4785C6.52331 10.8374 7.50259 11.3051 8.74302 11.3051C9.9846 11.3051 10.9639 10.8374 11.534 10.4785C11.7881 10.3199 12.0353 10.2746 12.216 10.3222C12.3869 10.3675 12.5575 10.4166 12.7278 10.4694L13.8749 10.8272C14.846 11.1296 15.5747 11.8633 15.8276 12.7647L16.3056 16.0259C16.4105 16.746 16.0107 17.3564 15.3438 17.507C14.0649 17.7946 11.928 18.1151 8.74302 18.1151C5.55802 18.1151 3.42226 17.7946 2.1422 17.507C1.47653 17.3564 1.07665 16.746 1.18158 16.0259L1.65956 12.7647C1.91137 11.8633 2.63884 11.1296 3.61112 10.8272L4.75945 10.4705C4.92888 10.4177 5.09908 10.3686 5.27007 10.3233M18.2828 7.69627C18.0991 7.65175 17.9073 7.64924 17.7224 7.68893C17.5375 7.72862 17.3646 7.80943 17.2173 7.92501C16.9025 8.1628 16.3453 8.49118 15.7379 8.49118C15.5833 8.49118 15.435 8.55083 15.3257 8.65701C15.2164 8.76319 15.155 8.9072 15.155 9.05736C15.155 9.20752 15.2164 9.35153 15.3257 9.45771C15.435 9.56388 15.5833 9.62354 15.7379 9.62354C16.7381 9.62354 17.5519 9.10605 17.9331 8.81956C17.9472 8.80659 17.9644 8.79725 17.9832 8.79239H17.9879C18.1441 8.8324 18.2992 8.87694 18.453 8.92601L19.2516 9.18079C19.8648 9.37668 20.33 9.8534 20.4944 10.4422L20.8243 12.7624C20.8896 13.2188 20.6424 13.5607 20.288 13.6423C20.0277 13.7042 19.7117 13.7645 19.3402 13.8234C19.2646 13.8353 19.1921 13.8616 19.1269 13.9007C19.0617 13.9398 19.0051 13.991 18.9603 14.0513C18.9155 14.1117 18.8834 14.18 18.8657 14.2524C18.8481 14.3249 18.8453 14.3999 18.8576 14.4734C18.8698 14.5469 18.8969 14.6173 18.9371 14.6806C18.9774 14.7439 19.0301 14.7989 19.0922 14.8424C19.1543 14.8859 19.2247 14.9172 19.2993 14.9343C19.3738 14.9514 19.4511 14.9541 19.5268 14.9422C19.9247 14.878 20.2682 14.812 20.5573 14.744C21.6007 14.5028 22.1114 13.5324 21.9796 12.6073L21.6404 10.2226L21.6322 10.192C21.5045 9.70713 21.2527 9.26153 20.9 8.89664C20.5474 8.53176 20.1055 8.25945 19.6154 8.10505L18.8168 7.85027C18.6404 7.79379 18.4624 7.74243 18.2828 7.69627Z" fill="#969696"/>
</svg>
