<svg width="24" height="28" viewBox="0 0 24 28" fill="none" xmlns="http://www.w3.org/2000/svg">
<path d="M22.9992 20.4071V11.515C22.9992 6.67565 22.9992 4.25533 21.4825 2.75257C19.9659 1.24982 17.5266 1.24854 12.6466 1.24854H11.3526C6.47262 1.24854 4.03201 1.24854 2.51665 2.75257C1.00129 4.25661 1 6.67565 1 11.515V23.7064" stroke="#969696" stroke-width="1.09996" stroke-linecap="round" stroke-linejoin="round"/>
<path d="M22.9992 20.498H4.23518C3.37715 20.498 2.55427 20.8361 1.94756 21.4377C1.34085 22.0394 1 22.8554 1 23.7063C1 24.5572 1.34085 25.3732 1.94756 25.9749C2.55427 26.5766 3.37715 26.9146 4.23518 26.9146H22.9992" stroke="#969696" stroke-width="1.09996" stroke-linecap="round" stroke-linejoin="round"/>
<path d="M23.0001 20.4982C22.1421 20.4982 21.3192 20.8363 20.7125 21.4379C20.1058 22.0396 19.7649 22.8556 19.7649 23.7065C19.7649 24.5574 20.1058 25.3734 20.7125 25.9751C21.3192 26.5768 22.1421 26.9148 23.0001 26.9148M6.82422 8.1451C8.31111 7.02862 10.0853 6.38184 11.994 6.38184C13.9067 6.38184 15.6873 7.03376 17.1768 8.15537M14.8138 11.1532C13.9588 10.6542 12.9848 10.3911 11.9927 10.3909C10.9847 10.3909 10.0309 10.6617 9.1846 11.1455M12.0005 14.0817H12.0083" stroke="#969696" stroke-width="1.09996" stroke-linecap="round" stroke-linejoin="round"/>
</svg>
