<svg width="22" height="24" viewBox="0 0 22 24" fill="none" xmlns="http://www.w3.org/2000/svg">
<path fill-rule="evenodd" clip-rule="evenodd" d="M8.19761 0.489094C7.3335 1.24153 7.3335 2.61801 7.3335 5.36976V18.6281C7.3335 21.3798 7.3335 22.7563 8.19761 23.5087C9.06172 24.2612 10.3829 24.0356 13.0254 23.5831L15.8732 23.0959C18.7992 22.5943 20.2622 22.3435 21.1312 21.2898C22.0002 20.235 22.0002 18.7109 22.0002 15.6615V8.33632C22.0002 5.28815 22.0002 3.76407 21.1324 2.70921C20.2622 1.65556 18.7979 1.40474 15.8719 0.904317L13.0266 0.41589C10.3842 -0.0365338 9.06294 -0.262146 8.19883 0.490294M11.0002 9.80159C11.5062 9.80159 11.9168 10.2228 11.9168 10.7424V13.2554C11.9168 13.775 11.5062 14.1962 11.0002 14.1962C10.4942 14.1962 10.0835 13.775 10.0835 13.2554V10.7424C10.0835 10.2228 10.4942 9.80159 11.0002 9.80159Z" fill="white"/>
<path d="M5.55744 2.99854C3.04211 3.00214 1.73067 3.05614 0.894667 3.87698C1.457e-07 4.75543 0 6.16911 0 8.99886V14.9992C0 17.8277 1.457e-07 19.2414 0.894667 20.1211C1.73067 20.9407 3.04211 20.9959 5.55744 20.9995C5.5 20.2507 5.5 19.3866 5.5 18.4518V5.54627C5.5 4.61022 5.5 3.74618 5.55744 2.99854Z" fill="white"/>
</svg>
