<svg width="24" height="24" viewBox="0 0 24 24" fill="none" xmlns="http://www.w3.org/2000/svg">
<path d="M11.1395 1.17109C10.7255 1.34209 10.3554 1.71332 9.61409 2.45354C8.87275 3.19601 8.50152 3.56612 8.33165 3.97897C8.21854 4.25199 8.16032 4.54461 8.16032 4.84012C8.16032 5.13564 8.21854 5.42826 8.33165 5.70128C8.50152 6.11526 8.87162 6.48537 9.61409 7.22671C10.3543 7.96805 10.7255 8.33929 11.1395 8.50916C11.6906 8.73728 12.3097 8.73728 12.8607 8.50916C13.2747 8.33929 13.6448 7.96918 14.3861 7.22671C15.1275 6.48424 15.4976 6.11526 15.6686 5.70128C15.8967 5.15023 15.8967 4.53115 15.6686 3.9801C15.4976 3.56612 15.1286 3.19601 14.3861 2.45466C13.6437 1.71332 13.2747 1.34209 12.8607 1.17109C12.3097 0.942969 11.6906 0.942969 11.1395 1.17109ZM3.97921 8.33029C3.56635 8.50128 3.19512 8.87139 2.4549 9.61274C1.71243 10.3552 1.34232 10.7253 1.17133 11.1382C1.05822 11.4112 1 11.7038 1 11.9993C1 12.2948 1.05822 12.5875 1.17133 12.8605C1.34232 13.2745 1.71355 13.6446 2.45377 14.3859C3.19624 15.1273 3.56635 15.4974 3.97921 15.6684C4.25222 15.7815 4.54484 15.8397 4.84036 15.8397C5.13587 15.8397 5.4285 15.7815 5.70151 15.6684C6.11549 15.4974 6.4856 15.1273 7.22694 14.3859C7.96829 13.6446 8.3384 13.2745 8.50939 12.8605C8.73751 12.3094 8.73751 11.6903 8.50939 11.1393C8.3384 10.7253 7.96941 10.3541 7.22694 9.61274C6.48448 8.87139 6.11549 8.50128 5.70151 8.33029C5.15046 8.10217 4.53026 8.10217 3.97921 8.33029ZM16.7733 9.61274C16.0319 10.3552 15.6618 10.7253 15.4908 11.1382C15.3777 11.4112 15.3195 11.7038 15.3195 11.9993C15.3195 12.2948 15.3777 12.5875 15.4908 12.8605C15.6618 13.2745 16.0319 13.6446 16.7733 14.3859C17.5146 15.1273 17.8859 15.4974 18.2987 15.6684C18.8498 15.8965 19.4689 15.8965 20.0199 15.6684C20.4339 15.4974 20.8051 15.1273 21.5465 14.3859C22.2878 13.6446 22.6568 13.2745 22.8289 12.8605C23.057 12.3094 23.057 11.6903 22.8289 11.1393C22.6568 10.7253 22.2878 10.3541 21.5465 9.61274C20.804 8.87139 20.4339 8.50128 20.021 8.33029C19.748 8.21718 19.4554 8.15896 19.1599 8.15896C18.8644 8.15896 18.5717 8.21718 18.2987 8.33029C17.8859 8.50128 17.5146 8.87139 16.7733 9.61274ZM11.1395 15.4895C10.7255 15.6605 10.3554 16.0317 9.61409 16.7719C8.87275 17.5144 8.50152 17.8845 8.33165 18.2985C8.10352 18.8495 8.10352 19.4686 8.33165 20.0197C8.50152 20.4337 8.87162 20.8038 9.61409 21.5451C10.3543 22.2864 10.7255 22.6577 11.1395 22.8276C11.6906 23.0557 12.3097 23.0557 12.8607 22.8276C13.2747 22.6577 13.6448 22.2876 14.3861 21.5451C15.1275 20.8026 15.4976 20.4337 15.6686 20.0197C15.897 19.4684 15.897 18.8497 15.6686 18.2985C15.4976 17.8845 15.1286 17.5133 14.3861 16.7731C13.6448 16.0306 13.2747 15.6605 12.8607 15.4895C12.3097 15.2614 11.6906 15.2614 11.1395 15.4895Z" stroke="white" stroke-linecap="round" stroke-linejoin="round"/>
</svg>
