<svg width="22" height="20" viewBox="0 0 22 20" fill="none" xmlns="http://www.w3.org/2000/svg">
<path d="M1.97511 20C1.41207 20 0.942333 19.8075 0.565889 19.4225C0.189445 19.0375 0.000814815 18.5567 0 17.98V2.02C0 1.44417 0.18863 0.96375 0.565889 0.57875C0.943148 0.19375 1.41248 0.000833333 1.97389 0H20.0261C20.5883 0 21.0577 0.192916 21.4341 0.57875C21.8106 0.964583 21.9992 1.445 22 2.02V17.9812C22 18.5562 21.8114 19.0367 21.4341 19.4225C21.0569 19.8083 20.5875 20.0008 20.0261 20H1.97511ZM1.97511 18.75H20.0261C20.2135 18.75 20.3859 18.67 20.5431 18.51C20.7004 18.35 20.7786 18.1733 20.7778 17.98V2.02C20.7778 1.8275 20.6996 1.65083 20.5431 1.49C20.3867 1.32917 20.2143 1.24917 20.0261 1.25H1.97389C1.78648 1.25 1.61415 1.33 1.45689 1.49C1.29963 1.65 1.22141 1.82667 1.22222 2.02V17.9812C1.22222 18.1729 1.30044 18.3492 1.45689 18.51C1.61333 18.6708 1.78567 18.7508 1.97389 18.75M5.21767 15.2875H16.7823C16.9559 15.2875 17.1009 15.2283 17.2174 15.11C17.334 14.9917 17.3926 14.8429 17.3934 14.6637C17.3943 14.4846 17.3356 14.3358 17.2174 14.2175C17.0993 14.0992 16.9543 14.0396 16.7823 14.0387H5.21767C5.04411 14.0387 4.89867 14.0983 4.78133 14.2175C4.664 14.3367 4.60574 14.4854 4.60656 14.6637C4.60737 14.8421 4.66563 14.9908 4.78133 15.11C4.89704 15.2292 5.04248 15.2887 5.21767 15.2887M5.21767 10.625H8.13267C8.30622 10.625 8.45126 10.5654 8.56778 10.4462C8.6843 10.3271 8.74296 10.1783 8.74378 10V5.3375C8.74378 5.15917 8.68552 5.01 8.569 4.89C8.45248 4.77 8.30704 4.71042 8.13267 4.71125H5.21767C5.04411 4.71125 4.89907 4.77083 4.78256 4.89C4.66604 5.00917 4.60737 5.15792 4.60656 5.33625V10C4.60656 10.1783 4.66481 10.3271 4.78133 10.4462C4.89785 10.5654 5.0433 10.625 5.21767 10.625ZM12.2699 10.625H16.7823C16.9559 10.625 17.1009 10.5654 17.2174 10.4462C17.334 10.3271 17.3926 10.1783 17.3934 10C17.3943 9.82167 17.3356 9.67292 17.2174 9.55375C17.0993 9.43458 16.9543 9.375 16.7823 9.375H12.2687C12.0951 9.375 11.9501 9.43458 11.8336 9.55375C11.717 9.67292 11.6588 9.82167 11.6588 10C11.6588 10.1783 11.717 10.3271 11.8336 10.4462C11.9501 10.5654 12.0955 10.625 12.2699 10.625ZM12.2699 5.9625H16.7823C16.9559 5.9625 17.1009 5.9025 17.2174 5.7825C17.334 5.6625 17.3926 5.51375 17.3934 5.33625C17.3943 5.15875 17.3356 5.01 17.2174 4.89C17.0993 4.77 16.9543 4.71042 16.7823 4.71125H12.2687C12.0951 4.71125 11.9501 4.77083 11.8336 4.89C11.717 5.00917 11.6584 5.15792 11.6576 5.33625C11.6567 5.51458 11.7154 5.66333 11.8336 5.7825C11.9517 5.90167 12.0967 5.96125 12.2687 5.96125" fill="#969696"/>
</svg>
