<svg width="24" height="30" viewBox="0 0 24 30" fill="none" xmlns="http://www.w3.org/2000/svg">
<path d="M10.3586 6C8.69336 6 7.32406 7.28059 7.32406 8.88235C7.32406 10.4841 8.69336 11.7647 10.3594 11.7647C11.7618 11.7647 12.9539 10.8564 13.2955 9.61282C13.446 10.1112 13.7749 10.5409 14.2228 10.8244C14.6708 11.1079 15.2083 11.2266 15.7385 11.159C16.2686 11.0914 16.7564 10.842 17.1138 10.4558C17.4713 10.0696 17.6748 9.57201 17.6878 9.05284C17.7007 8.53366 17.5222 8.02709 17.1844 7.62452C16.8467 7.22195 16.3719 6.94991 15.8457 6.85747C15.3196 6.76503 14.7768 6.85828 14.3152 7.12041C13.8536 7.38253 13.5037 7.79626 13.3286 8.28694C13.0378 6.97341 11.8109 6 10.3586 6ZM8.17192 8.88235C8.17192 7.75494 9.14103 6.82353 10.3594 6.82353C11.5769 6.82353 12.5452 7.75494 12.5452 8.88235C12.5452 10.0098 11.5769 10.9412 10.3586 10.9412C9.14103 10.9412 8.17192 10.0098 8.17192 8.88235ZM14.0527 9.00012C14.0527 8.64126 14.1995 8.29711 14.4607 8.04336C14.7219 7.78961 15.0763 7.64706 15.4457 7.64706C15.8152 7.64706 16.1695 7.78961 16.4308 8.04336C16.692 8.29711 16.8388 8.64126 16.8388 9.00012C16.8388 9.35897 16.692 9.70313 16.4308 9.95687C16.1695 10.2106 15.8152 10.3532 15.4457 10.3532C15.0763 10.3532 14.7219 10.2106 14.4607 9.95687C14.1995 9.70313 14.0527 9.35897 14.0527 9.00012ZM8.79001 12.9316C8.47885 12.7365 8.04898 12.5973 7.60809 12.7151C7.47244 12.7518 7.33734 12.7908 7.20282 12.832L6.36767 13.0922C5.38839 13.3969 4.63464 14.1496 4.37944 15.1L4.3735 15.1222L4.01994 17.5409C3.89107 18.4238 4.39216 19.3165 5.36635 19.5364C6.36513 19.7612 7.98455 20 10.3586 20C12.7326 20 14.352 19.7612 15.3508 19.5364C16.3258 19.3165 16.826 18.4238 16.6972 17.5409L16.3436 15.1222L16.3377 15.1C16.0833 14.1496 15.3287 13.3961 14.3494 13.0922L13.5151 12.832C13.3806 12.7903 13.2452 12.7513 13.109 12.7151C12.6681 12.5973 12.2383 12.7365 11.9279 12.9316C11.5939 13.1408 11.0419 13.4002 10.3594 13.4002C9.67688 13.4002 9.12322 13.1416 8.79001 12.9316ZM7.83278 13.5081C7.9642 13.4727 8.14394 13.5056 8.32962 13.6218C8.74423 13.8828 9.45643 14.2229 10.3586 14.2229C11.2615 14.2229 11.9737 13.8828 12.3883 13.6218C12.5732 13.5065 12.7529 13.4735 12.8843 13.5081C13.0087 13.5411 13.1328 13.5767 13.2565 13.6152L14.0908 13.8754C14.7971 14.0953 15.327 14.6289 15.511 15.2845L15.8586 17.6562C15.9349 18.18 15.6441 18.6239 15.1591 18.7334C14.229 18.9426 12.6749 19.1756 10.3586 19.1756C8.0422 19.1756 6.48892 18.9426 5.55797 18.7334C5.07384 18.6239 4.78302 18.18 4.85933 17.6562L5.20695 15.2845C5.39009 14.6289 5.91915 14.0953 6.62627 13.8754L7.46141 13.616C7.58464 13.5776 7.70842 13.5419 7.83278 13.5089M17.2966 11.5984C17.163 11.566 17.0235 11.5641 16.889 11.593C16.7545 11.6219 16.6288 11.6806 16.5217 11.7647C16.2927 11.9376 15.8875 12.1765 15.4457 12.1765C15.3333 12.1765 15.2255 12.2199 15.146 12.2971C15.0665 12.3743 15.0218 12.479 15.0218 12.5882C15.0218 12.6974 15.0665 12.8022 15.146 12.8794C15.2255 12.9566 15.3333 13 15.4457 13C16.1732 13 16.765 12.6236 17.0422 12.4153C17.0525 12.4059 17.065 12.3991 17.0787 12.3955H17.0821C17.1957 12.4246 17.3085 12.457 17.4204 12.4927L18.0012 12.678C18.4472 12.8205 18.7855 13.1672 18.905 13.5954L19.1449 15.2828C19.1924 15.6147 19.0127 15.8634 18.7549 15.9227C18.5656 15.9677 18.3358 16.0116 18.0656 16.0545C18.0106 16.0631 17.9579 16.0822 17.9105 16.1107C17.8631 16.1391 17.8219 16.1763 17.7893 16.2202C17.7567 16.2641 17.7333 16.3138 17.7205 16.3665C17.7077 16.4191 17.7057 16.4738 17.7146 16.5272C17.7235 16.5806 17.7432 16.6318 17.7724 16.6778C17.8017 16.7239 17.8401 16.7639 17.8852 16.7955C17.9304 16.8272 17.9816 16.8499 18.0358 16.8624C18.0901 16.8748 18.1463 16.8768 18.2013 16.8681C18.4907 16.8215 18.7405 16.7734 18.9508 16.724C19.7096 16.5486 20.081 15.8428 19.9852 15.17L19.7384 13.4356L19.7325 13.4134C19.6397 13.0608 19.4565 12.7367 19.2 12.4713C18.9436 12.206 18.6222 12.0079 18.2657 11.8956L17.6849 11.7104C17.5567 11.6693 17.4272 11.6319 17.2966 11.5984Z" fill="#969696"/>
<path d="M1.00137 27.8333C1.00137 28.4773 1.52934 29 2.17987 29H18.9177C20.7451 29 21.4287 28.4322 21.4287 26.5111V24.2633M1.00137 27.8333C1.00137 26.9051 1.37386 26.0148 2.03689 25.3585C2.69993 24.7021 3.59919 24.3333 4.53687 24.3333H20.489C20.8441 24.3333 21.1574 24.31 21.4287 24.2633M1.00137 27.8333V5.97778C1.00137 4.21067 0.888235 2.26156 2.71726 1.33911C3.38979 1 4.26974 1 6.02963 1H20.4859C22.428 1 23 1.67978 23 3.48889V21.8444C23 23.3922 22.5569 24.0611 21.4287 24.2633" stroke="#969696" stroke-width="1.04762" stroke-linecap="round" stroke-linejoin="round"/>
</svg>
