<svg width="24" height="29" viewBox="0 0 24 29" fill="none" xmlns="http://www.w3.org/2000/svg">
<path d="M12 20.5414C11.5302 20.5416 11.0706 20.4029 10.6784 20.1426C10.2861 19.8823 9.97831 19.5117 9.7932 19.0769C9.40601 18.9848 9.02487 18.8686 8.652 18.7289L8.6316 18.7216C7.5367 18.3078 6.5261 17.696 5.6496 16.9163C4.47527 15.8731 3.57218 14.5565 3.01909 13.0813C2.466 11.606 2.27969 10.0169 2.47641 8.45254C2.67314 6.88815 3.24692 5.39597 4.14772 4.10611C5.04853 2.81625 6.24901 1.76787 7.6445 1.05238C9.03999 0.336892 10.5881 -0.023978 12.1539 0.0012361C13.7196 0.0264502 15.2555 0.436982 16.6275 1.19704C17.9996 1.95709 19.1662 3.04359 20.0256 4.3618C20.8849 5.68001 21.4111 7.1899 21.558 8.75982C21.6048 9.25888 21.198 9.6661 20.7 9.6661C20.2032 9.6661 19.806 9.25888 19.7484 8.76103C19.5898 7.38747 19.0738 6.08042 18.2527 4.97202C17.4316 3.86362 16.3345 2.99315 15.0722 2.44861C13.8099 1.90407 12.4272 1.70476 11.0639 1.87082C9.7006 2.03689 8.40499 2.56245 7.30806 3.39437C6.21113 4.22629 5.35175 5.33508 4.81679 6.60866C4.28184 7.88225 4.09028 9.27548 4.26146 10.6475C4.43265 12.0195 4.96053 13.3218 5.79173 14.4225C6.62293 15.5232 7.72799 16.3835 8.9952 16.9163L9.0432 16.9369C9.2832 17.0359 9.5296 17.1233 9.7824 17.1991C10.0136 16.6319 10.4502 16.1744 11.0038 15.9192C11.5574 15.664 12.1866 15.6303 12.764 15.8247C13.3414 16.0192 13.8238 16.4274 14.1135 16.9666C14.4032 17.5058 14.4786 18.1358 14.3244 18.7289C14.1914 19.2477 13.8908 19.7074 13.4701 20.0355C13.0493 20.3636 12.5322 20.5416 12 20.5414ZM3.6 18.7289H5.0028C4.33189 18.2023 3.72097 17.6025 3.1812 16.9405C2.30486 17.0438 1.49672 17.4677 0.910273 18.1315C0.323821 18.7953 -0.000108593 19.6529 2.73079e-08 20.5414V21.4054C2.73079e-08 25.8981 5.052 29 12 29C18.948 29 24 25.7277 24 21.4054V20.5414C24 19.58 23.6207 18.6579 22.9456 17.9781C22.2705 17.2982 21.3548 16.9163 20.4 16.9163H16.026C16.1999 17.5037 16.245 18.1222 16.158 18.7289H20.4L20.574 18.7373C21.0192 18.7809 21.4323 18.9897 21.7329 19.3233C22.0335 19.6568 22.2 20.091 22.2 20.5414V21.4054L22.194 21.5999C22.026 24.645 17.9112 27.1874 12 27.1874C5.8668 27.1874 1.8 24.6366 1.8 21.4054V20.5414L1.8084 20.3662C1.85164 19.9179 2.05907 19.5019 2.39027 19.1992C2.72148 18.8965 3.15273 18.7289 3.6 18.7289ZM18 9.6661C18.0002 10.7606 17.7051 11.8346 17.1463 12.7734C16.5875 13.7122 15.7859 14.4805 14.8272 14.9962C14.0537 14.2877 13.0456 13.8952 12 13.8954C12.5516 13.8954 13.0977 13.786 13.6073 13.5735C14.1168 13.3609 14.5798 13.0494 14.9698 12.6567C15.3599 12.2639 15.6692 11.7977 15.8803 11.2846C16.0914 10.7715 16.2 10.2215 16.2 9.6661C16.2 9.1107 16.0914 8.56074 15.8803 8.04762C15.6692 7.5345 15.3599 7.06827 14.9698 6.67554C14.5798 6.28281 14.1168 5.97129 13.6073 5.75875C13.0977 5.5462 12.5516 5.43681 12 5.43681C10.8861 5.43681 9.8178 5.88239 9.03015 6.67554C8.2425 7.46869 7.8 8.54442 7.8 9.6661C7.8 10.7878 8.2425 11.8635 9.03015 12.6567C9.8178 13.4498 10.8861 13.8954 12 13.8954C10.9104 13.8954 9.9192 14.3135 9.174 14.9974C8.21579 14.4821 7.41449 13.7145 6.8556 12.7764C6.37976 11.9782 6.09356 11.08 6.01936 10.1519C5.94515 9.22387 6.08494 8.29112 6.42781 7.42646C6.77069 6.5618 7.30737 5.78864 7.99597 5.16732C8.68456 4.54599 9.50644 4.09333 10.3974 3.84465C11.2885 3.59598 12.2245 3.55802 13.1325 3.73375C14.0404 3.90948 14.8958 4.29413 15.6318 4.85769C16.3677 5.42124 16.9644 6.14845 17.3752 6.98255C17.786 7.81664 17.9999 8.73506 18 9.6661Z" fill="white"/>
</svg>
