<svg width="24" height="24" viewBox="0 0 24 24" fill="none" xmlns="http://www.w3.org/2000/svg">
<path d="M12.0009 11.2667C14.8545 11.2667 17.1678 8.96838 17.1678 6.13333C17.1678 3.29827 14.8545 1 12.0009 1C9.14729 1 6.83398 3.29827 6.83398 6.13333C6.83398 8.96838 9.14729 11.2667 12.0009 11.2667Z" stroke="#969696" stroke-linecap="round"/>
<path d="M1.44462 19.257C2.38795 15.8177 5.96936 14.2 9.55667 14.2H14.4431C18.0304 14.2 21.6118 15.8177 22.5566 19.257C22.7621 20.0036 22.9077 20.7653 22.9921 21.5347C23.0807 22.3414 22.4105 22.9999 21.5956 22.9999H2.40419C1.5893 22.9999 0.920549 22.3399 1.00765 21.5362C1.09201 20.7662 1.23911 20.0041 1.44462 19.257Z" stroke="#969696" stroke-linecap="round"/>
</svg>
