<svg width="24" height="21" viewBox="0 0 24 21" fill="none" xmlns="http://www.w3.org/2000/svg">
<path d="M1.15505 21C0.940696 21 0.745829 20.9467 0.570448 20.8401C0.395067 20.7336 0.25866 20.5924 0.161227 20.4166C0.063793 20.2409 0.0103994 20.0511 0.00104575 19.8473C-0.00830788 19.6435 0.0450857 19.4444 0.161227 19.25L10.9764 0.583332C11.0933 0.388888 11.2445 0.243055 11.43 0.145833C11.6155 0.048611 11.8053 0 11.9994 0C12.1935 0 12.3837 0.048611 12.57 0.145833C12.7563 0.243055 12.9071 0.388888 13.0225 0.583332L23.8376 19.25C23.9545 19.4444 24.0083 19.6439 23.999 19.8485C23.9896 20.053 23.9358 20.2424 23.8376 20.4166C23.7394 20.5909 23.603 20.732 23.4284 20.8401C23.2538 20.9482 23.0589 21.0015 22.8438 21H1.15505ZM11.9994 17.5C12.3307 17.5 12.6086 17.388 12.8331 17.164C13.0575 16.94 13.1694 16.6631 13.1686 16.3333C13.1678 16.0035 13.0556 15.7266 12.8319 15.5026C12.6082 15.2786 12.3307 15.1666 11.9994 15.1666C11.6681 15.1666 11.3907 15.2786 11.1669 15.5026C10.9432 15.7266 10.831 16.0035 10.8302 16.3333C10.8294 16.6631 10.9417 16.9404 11.1669 17.1651C11.3922 17.3899 11.6697 17.5015 11.9994 17.5ZM11.9994 14C12.3307 14 12.6086 13.888 12.8331 13.664C13.0575 13.44 13.1694 13.1631 13.1686 12.8333V9.33332C13.1686 9.00276 13.0564 8.72588 12.8319 8.50265C12.6074 8.27943 12.3299 8.16743 11.9994 8.16665C11.6689 8.16588 11.3914 8.27788 11.1669 8.50265C10.9425 8.72743 10.8302 9.00432 10.8302 9.33332V12.8333C10.8302 13.1639 10.9425 13.4411 11.1669 13.6651C11.3914 13.8891 11.6689 14.0008 11.9994 14Z" fill="#FFBE5C"/>
</svg>
